<svg width="76" height="71" viewBox="0 0 76 71" fill="none" xmlns="http://www.w3.org/2000/svg">
<ellipse cx="37.9584" cy="35.6286" rx="33.2378" ry="30.8637" transform="rotate(-8.3307 37.9584 35.6286)" fill="#9FB9CD"/>
<path fill-rule="evenodd" clip-rule="evenodd" d="M37.6289 20.0935C37.9962 19.969 38.3836 19.9688 38.7508 20.0931C39.5314 20.3571 40.3193 20.6021 41.1097 20.8478C44.8215 22.0018 48.5912 23.1738 51.9451 26.4301L53.4895 27.9296C54.116 28.5379 54.4294 29.4382 54.4297 30.3387V42.9249C54.4297 43.6697 53.9232 44.2735 53.2984 44.2735C52.6737 44.2735 52.1672 43.6697 52.1672 42.9249V34.0367L51.9214 34.2757C50.7593 35.4062 49.5468 36.284 48.304 36.9966C48.3634 37.1604 48.3963 37.341 48.3963 37.5308V45.2515C48.3963 47.2891 47.3476 49.1182 45.755 49.8583L39.7215 52.6623C38.7526 53.1126 37.6771 53.1126 36.7082 52.6623L30.6747 49.8583C29.0821 49.1182 28.0334 47.2891 28.0334 45.2515V37.5308C28.0334 37.3362 28.068 37.1513 28.1302 36.9842C26.8778 36.2674 25.6558 35.3844 24.4846 34.2473L22.9402 32.7478C21.6872 31.5313 21.6866 29.1465 22.9384 27.9287L24.5083 26.4017C27.8379 23.1628 31.581 21.9978 35.2653 20.8511C36.0575 20.6045 36.8469 20.3588 37.6289 20.0935ZM52.1672 30.3398C52.1671 30.1778 52.1122 30.0708 52.0607 30.0208L50.5162 28.5213C47.265 25.8436 44.368 24.6626 40.6884 23.51C39.8793 23.2566 39.0473 22.996 38.1907 22.7071C37.3302 22.9981 36.4952 23.2599 35.6834 23.5145C32.0333 24.6592 28.8528 25.6566 25.9387 28.4913L24.3689 30.0183C24.3173 30.0685 24.2625 30.1756 24.2625 30.3376C24.2626 30.4996 24.3175 30.6066 24.369 30.6566L25.9135 32.1561C28.8522 35.0094 32.0617 36.0147 35.7413 37.1673C36.5504 37.4208 37.3823 37.6814 38.239 37.9703C39.0995 37.6793 39.9344 37.4175 40.7461 37.1629C44.3962 36.0182 47.5769 35.0208 50.491 32.1861L52.0608 30.659C52.1123 30.6089 52.1671 30.5015 52.1672 30.3398ZM41.1644 39.8263C42.8233 39.31 44.4941 38.7899 46.1337 38.0786V45.2515C46.1337 46.1777 45.6571 47.009 44.9331 47.3455L38.8997 50.1494C38.4593 50.3541 37.9704 50.3541 37.53 50.1494L31.4966 47.3455C30.7726 47.009 30.296 46.1777 30.296 45.2515V38.0633C31.9533 38.7829 33.6426 39.3081 35.32 39.8296C36.1104 40.0753 36.8983 40.3202 37.6789 40.5843C38.0461 40.7086 38.4335 40.7084 38.8008 40.5838C39.5828 40.3186 40.3723 40.0728 41.1644 39.8263Z" fill="black"/>
</svg>
