<svg width="27" height="28" viewBox="0 0 27 28" fill="none" xmlns="http://www.w3.org/2000/svg">
<path fill-rule="evenodd" clip-rule="evenodd" d="M12.9848 0.325769C13.29 0.222253 13.6118 0.222158 13.9169 0.325371C14.5655 0.544769 15.22 0.748264 15.8767 0.952438C18.9606 1.9112 22.0925 2.88492 24.879 5.59029L26.1622 6.83614C26.6826 7.34148 26.943 8.0895 26.9433 8.83764V19.2945C26.9433 19.9133 26.5225 20.4149 26.0034 20.4149C25.4843 20.4149 25.0635 19.9133 25.0635 19.2945V11.91L24.8593 12.1086C23.8938 13.0478 22.8864 13.7771 21.8539 14.3691C21.9032 14.5052 21.9306 14.6553 21.9306 14.813V21.2275C21.9306 22.9204 21.0593 24.44 19.7361 25.0549L14.7234 27.3845C13.9184 27.7586 13.0249 27.7586 12.2198 27.3845L7.20714 25.0549C5.88393 24.44 5.0127 22.9204 5.0127 21.2275V14.813C5.0127 14.6513 5.04143 14.4977 5.09313 14.3588C4.05256 13.7633 3.03735 13.0298 2.06429 12.085L0.781107 10.8391C-0.259854 9.82847 -0.260401 7.84712 0.779658 6.83541L2.08394 5.56668C4.85024 2.87577 7.96007 1.90787 11.0211 0.955157C11.6792 0.750319 12.3351 0.546177 12.9848 0.325769ZM25.0635 8.83854C25.0635 8.70395 25.0178 8.61509 24.975 8.57354L23.6919 7.32769C20.9907 5.10304 18.5838 4.12187 15.5267 3.16427C14.8545 2.9537 14.1633 2.73718 13.4515 2.49716C12.7366 2.73891 12.0429 2.95648 11.3684 3.16799C8.33587 4.11902 5.69346 4.94769 3.27239 7.30277L1.96811 8.57149C1.92527 8.61317 1.87972 8.70217 1.87976 8.83675C1.87981 8.97133 1.92542 9.0602 1.96822 9.10175L3.25139 10.3476C5.69298 12.7182 8.3595 13.5534 11.4166 14.511C12.0888 14.7216 12.78 14.9381 13.4917 15.1781C14.2066 14.9364 14.9003 14.7188 15.5747 14.5073C18.6072 13.5563 21.2498 12.7276 23.6709 10.3725L24.9751 9.10379C25.018 9.06216 25.0635 8.97289 25.0635 8.83854ZM15.9222 16.7201C17.3004 16.2912 18.6886 15.8591 20.0508 15.2681V21.2275C20.0508 21.997 19.6548 22.6877 19.0533 22.9672L14.0406 25.2968C13.6747 25.4669 13.2686 25.4669 12.9026 25.2968L7.88993 22.9672C7.28848 22.6877 6.89246 21.997 6.89246 21.2275V15.2554C8.26942 15.8532 9.67287 16.2896 11.0665 16.7228C11.7232 16.927 12.3778 17.1305 13.0263 17.3499C13.3315 17.4531 13.6533 17.453 13.9584 17.3495C14.6081 17.1291 15.2641 16.925 15.9222 16.7201Z" fill="black"/>
</svg>
