<svg width="75" height="71" viewBox="0 0 75 71" fill="none" xmlns="http://www.w3.org/2000/svg">
<ellipse cx="37.3588" cy="35.3537" rx="33.2378" ry="30.8637" transform="rotate(-8.3307 37.3588 35.3537)" fill="#2E3A43"/>
<path fill-rule="evenodd" clip-rule="evenodd" d="M36.6289 19.0935C36.9962 18.969 37.3836 18.9688 37.7508 19.0931C38.5314 19.3571 39.3193 19.6021 40.1097 19.8478C43.8215 21.0018 47.5912 22.1738 50.9451 25.4301L52.4895 26.9296C53.116 27.5379 53.4294 28.4382 53.4297 29.3387V41.9249C53.4297 42.6697 52.9232 43.2735 52.2984 43.2735C51.6737 43.2735 51.1672 42.6697 51.1672 41.9249V33.0367L50.9214 33.2757C49.7593 34.4062 48.5468 35.284 47.304 35.9966C47.3634 36.1604 47.3963 36.341 47.3963 36.5308V44.2515C47.3963 46.2891 46.3476 48.1182 44.755 48.8583L38.7215 51.6623C37.7526 52.1126 36.6771 52.1126 35.7082 51.6623L29.6747 48.8583C28.0821 48.1182 27.0334 46.2891 27.0334 44.2515V36.5308C27.0334 36.3362 27.068 36.1513 27.1302 35.9842C25.8778 35.2674 24.6558 34.3844 23.4846 33.2473L21.9402 31.7478C20.6872 30.5313 20.6866 28.1465 21.9384 26.9287L23.5083 25.4017C26.8379 22.1628 30.581 20.9978 34.2653 19.8511C35.0575 19.6045 35.8469 19.3588 36.6289 19.0935ZM51.1672 29.3398C51.1671 29.1778 51.1122 29.0708 51.0607 29.0208L49.5162 27.5213C46.265 24.8436 43.368 23.6626 39.6884 22.51C38.8793 22.2566 38.0473 21.996 37.1907 21.7071C36.3302 21.9981 35.4952 22.2599 34.6834 22.5145C31.0333 23.6592 27.8528 24.6566 24.9387 27.4913L23.3689 29.0183C23.3173 29.0685 23.2625 29.1756 23.2625 29.3376C23.2626 29.4996 23.3175 29.6066 23.369 29.6566L24.9135 31.1561C27.8522 34.0094 31.0617 35.0147 34.7413 36.1673C35.5504 36.4208 36.3823 36.6814 37.239 36.9703C38.0995 36.6793 38.9344 36.4175 39.7461 36.1629C43.3962 35.0182 46.5769 34.0208 49.491 31.1861L51.0608 29.659C51.1123 29.6089 51.1671 29.5015 51.1672 29.3398ZM40.1644 38.8263C41.8233 38.31 43.4941 37.7899 45.1337 37.0786V44.2515C45.1337 45.1777 44.6571 46.009 43.9331 46.3455L37.8997 49.1494C37.4593 49.3541 36.9704 49.3541 36.53 49.1494L30.4966 46.3455C29.7726 46.009 29.296 45.1777 29.296 44.2515V37.0633C30.9533 37.7829 32.6426 38.3081 34.32 38.8296C35.1104 39.0753 35.8983 39.3202 36.6789 39.5843C37.0461 39.7086 37.4335 39.7084 37.8008 39.5838C38.5828 39.3186 39.3723 39.0728 40.1644 38.8263Z" fill="#FCFCFC"/>
</svg>
